<svg id="Capa_1" enable-background="new 0 0 512 512" height="512" viewBox="0 0 512 512" width="512" xmlns="http://www.w3.org/2000/svg"><g><path d="m437.02 187c-48.353-48.352-112.64-74.98-181.02-74.98s-132.667 26.627-181.02 74.98c-48.351 48.352-74.98 112.639-74.98 181.019v31.379h195.201l1.203-13.687c1.304-14.835 8.083-28.587 19.086-38.723 11.065-10.192 25.452-15.805 40.51-15.805 3.17 0 6.308.263 9.394.752l-24.394 33.7v34.346h30v-24.627l22.434-30.992c1.048.842 2.08 1.709 3.076 2.627 11.004 10.136 17.783 23.888 19.087 38.723l1.203 13.687h195.2v-31.379c0-68.381-26.629-132.668-74.98-181.02zm44.98 182.398h-138.796c-4.196-16.98-13.297-32.434-26.37-44.476-1.867-1.72-3.806-3.339-5.793-4.883l62.806-86.764-24.301-17.591-65.206 90.079c-9.049-3.005-18.6-4.578-28.34-4.578-22.609 0-44.214 8.431-60.834 23.738-13.074 12.042-22.173 27.496-26.37 44.476h-138.796v-1.379c0-60.367 23.508-117.12 66.194-159.806s99.439-66.194 159.806-66.194 117.12 23.508 159.806 66.194c42.686 42.685 66.194 99.438 66.194 159.805z"/></g></svg>