<?xml version="1.0" encoding="iso-8859-1"?>
<!-- Generator: Adobe Illustrator 19.0.0, SVG Export Plug-In . SVG Version: 6.00 Build 0)  -->
<svg version="1.1" id="Capa_1" xmlns="http://www.w3.org/2000/svg" xmlns:xlink="http://www.w3.org/1999/xlink" x="0px" y="0px"
	 viewBox="0 0 512 512" style="enable-background:new 0 0 512 512;" xml:space="preserve">
<g>
	<path style="fill:#E50027;" d="M1.588,413.707c-3.706-7.412-0.703-16.421,6.709-20.127l58.993-30c2.08-1.04,4.38-1.582,6.709-1.582
		h48.002c8.291,0,15,6.709,15,15s-6.709,15-15,15H77.544l-55.829,28.418C14.227,424.134,5.275,421.062,1.588,413.707z"/>
	<path style="fill:#E50027;" d="M33.395,477.602c-5.859-5.859-5.859-15.352,0-21.211l30-30c1.641-1.641,3.647-2.886,5.859-3.618
		l59.047-19.688c7.896-2.651,16.348,1.611,18.97,9.478s-1.626,16.362-9.478,18.97L82.1,450.107l-27.495,27.495
		C48.746,483.461,39.254,483.462,33.395,477.602z"/>
	<path style="fill:#E50027;" d="M93.394,507.602c-5.859-5.859-5.859-15.352,0-21.211l30-30c1.143-1.143,2.461-2.095,3.896-2.813
		l24.99-12.495c7.427-3.677,16.406-0.703,20.127,6.709c3.706,7.412,0.703,16.421-6.709,20.127L142.89,479.33l-28.286,28.271
		C108.745,513.462,99.253,513.462,93.394,507.602z"/>
	<path style="fill:#E50027;" d="M99.604,337.258c-14.546,0-32.285-11.338-48.69-31.099c-18.486-22.266-26.396-47.929-18.823-61.054
		l0,0C20.768,233.826,14,215.838,14,197c0-37.949,24.493-60.937,46.962-60.937c20.596,0,33.867,19.336,39.419,37.441
		c7.676,25.063,4.351,59.867-21.079,77.05l0,0c6.328,4.863,12.305,10.679,17.783,17.285c18.823,22.69,26.528,45.292,20.098,58.988
		C114.019,333.552,107.778,337.258,99.604,337.258z"/>
</g>
<g>
	<path style="fill:#C10020;" d="M490.286,420.416l-56.835-28.418h-44.457c-8.291,0-15-6.709-15-15s6.709-15,15-15h48.002
		c2.329,0,4.629,0.542,6.709,1.582l59.999,30c7.412,3.706,10.415,12.715,6.709,20.127
		C506.721,421.068,497.765,424.13,490.286,420.416z"/>
	<path style="fill:#C10020;" d="M456.39,477.602l-27.495-27.495l-55.692-18.574c-7.852-2.607-12.1-11.104-9.478-18.97
		s11.016-12.129,18.97-9.478l59.047,19.688c2.212,0.732,4.219,1.978,5.859,3.618l30,30c5.859,5.859,5.859,15.352,0,21.211
		C471.741,483.461,462.249,483.462,456.39,477.602z"/>
	<path style="fill:#C10020;" d="M396.391,507.602l-28.286-28.271l-22.808-11.411c-7.412-3.706-10.415-12.715-6.709-20.127
		c3.721-7.412,12.715-10.386,20.127-6.709l24.99,12.495c1.436,0.718,2.754,1.67,3.896,2.813l30,30
		c5.859,5.859,5.859,15.352,0,21.211C411.741,513.462,402.25,513.462,396.391,507.602z"/>
	<path style="fill:#C10020;" d="M412.122,337.082c-8.159,0-14.414-3.721-17.593-10.503c-6.489-13.77,1.055-36.284,19.702-58.739
		c5.479-6.606,11.47-12.422,17.783-17.285c-47.842-32.301-20.987-139.359,36.724-109.437c17.358,9.082,28.579,31.011,28.579,55.883
		c0,18.838-6.768,36.826-18.091,48.104l0,0c7.588,13.096-0.322,38.789-18.823,61.054
		C444.085,325.817,426.492,337.082,412.122,337.082z"/>
</g>
<path style="fill:#FD4E26;" d="M380.596,266.299c-2.999-0.601-90.896-17.701-90.896-17.701c-10.803-1.8-22.603-2.399-33.703-2.399
	s-24.2,0.599-34.999,2.399c-3.001,0.601-84.599,16.5-90.6,17.701c-24.3,5.099-40.201,28.799-35.099,53.098l15,75.6
	c13.799,69.299,85.098,117,145.697,117c59.999,0,130.9-47.4,144.699-117l15-75.6C420.794,295.098,404.894,271.398,380.596,266.299z"
	/>
<path style="fill:#FD3018;" d="M415.696,319.397l-15,75.6c-13.799,69.599-84.7,117-144.699,117V246.2
	c11.1,0,22.899,0.599,33.703,2.399c0,0,87.897,17.1,90.896,17.701C404.894,271.398,420.794,295.098,415.696,319.397z"/>
<path style="fill:#57555C;" d="M193.998,301.999c-24.814,0-44.999-20.186-44.999-44.999c0-24.814,20.186-44.999,44.999-44.999
	s44.999,20.186,44.999,44.999C238.998,281.813,218.812,301.999,193.998,301.999z"/>
<path style="fill:#3C3A41;" d="M316.997,301.999c-24.814,0-44.999-20.186-44.999-44.999c0-24.814,20.186-44.999,44.999-44.999
	c24.814,0,44.999,20.186,44.999,44.999C361.996,281.813,341.81,301.999,316.997,301.999z"/>
<path style="fill:#FD4E26;" d="M7.262,151.078C-17.235,100.891,23.934,40.795,75.64,15.573
	C104.893,1.305,137.603-3.41,165.522,2.477c5.596,1.187,10.034,5.449,11.44,11.001s-0.483,11.411-4.834,15.117l-52.792,46.809
	c-9.463,8.027-12.979,20.815-8.979,32.578c4.014,11.733,14.619,19.688,27.026,20.259l42.583,1.934
	c6.123,0.278,11.44,4.233,13.477,10.005c2.037,5.772,0.352,12.202-4.248,16.245c-10.195,8.979-21.855,16.699-34.629,22.925
	C90.905,210.399,27.561,192.696,7.262,151.078z"/>
<path style="fill:#FD3018;" d="M422.778,194.964c-21.621,0-44.135-5.391-65.097-15.601c-12.773-6.24-24.434-13.96-34.629-22.939
	c-4.6-4.043-6.284-10.474-4.248-16.245c2.036-5.771,7.354-9.727,13.477-10.005l42.597-1.934
	c12.393-0.571,22.998-8.525,27.012-20.273c3.999-11.748,0.483-24.536-8.979-32.578l-52.792-46.794
	c-4.351-3.706-6.24-9.565-4.834-15.117c1.406-5.552,5.845-9.814,11.44-11.001c27.935-5.889,60.629-1.172,89.882,13.081
	c59.457,29.033,90.145,90.93,68.393,135.519C491.597,178.557,460.85,194.964,422.778,194.964z"/>
<g>
</g>
<g>
</g>
<g>
</g>
<g>
</g>
<g>
</g>
<g>
</g>
<g>
</g>
<g>
</g>
<g>
</g>
<g>
</g>
<g>
</g>
<g>
</g>
<g>
</g>
<g>
</g>
<g>
</g>
</svg>
