<svg id="Capa_1" enable-background="new 0 0 512.001 512.001" height="512" viewBox="0 0 512.001 512.001" width="512" xmlns="http://www.w3.org/2000/svg"><g><path d="m263.5 43.233v-8.005c0-4.143-3.357-7.5-7.5-7.5s-7.5 3.357-7.5 7.5v8.005c0 4.143 3.357 7.5 7.5 7.5s7.5-3.357 7.5-7.5z"/><path d="m301.754 191.181v-18.767c0-14.881-12.106-26.987-26.987-26.987h-37.532c-14.882 0-26.988 12.106-26.988 26.987v18.767c0 12.67 5.179 24.151 13.528 32.444-3.468 5.254-5.37 11.457-5.37 17.868v49.865c0 7.383 6.006 13.389 13.388 13.389h48.416c7.383 0 13.389-6.006 13.389-13.389v-15.705c0-4.143-3.357-7.5-7.5-7.5s-7.5 3.357-7.5 7.5v14.094h-45.192v-48.254c0-3.268.934-6.428 2.621-9.157 6.039 2.943 12.817 4.599 19.975 4.599s13.935-1.656 19.974-4.599c1.687 2.73 2.622 5.89 2.622 9.157v4.174c0 4.143 3.357 7.5 7.5 7.5s7.5-3.357 7.5-7.5v-4.174c0-6.411-1.902-12.614-5.37-17.869 8.347-8.293 13.526-19.774 13.526-32.443zm-76.508 0v-18.767c0-6.609 5.378-11.987 11.988-11.987h37.532c6.609 0 11.987 5.378 11.987 11.987v18.767c0 16.958-13.796 30.754-30.754 30.754s-30.753-13.796-30.753-30.754z"/><path d="m162.058 346.601c0 4.143 3.357 7.5 7.5 7.5h172.885c4.143 0 7.5-3.357 7.5-7.5s-3.357-7.5-7.5-7.5h-172.885c-4.143 0-7.5 3.357-7.5 7.5z"/><path d="m169.558 403.454h172.885c4.143 0 7.5-3.357 7.5-7.5s-3.357-7.5-7.5-7.5h-172.885c-4.143 0-7.5 3.357-7.5 7.5s3.357 7.5 7.5 7.5z"/><path d="m169.558 452.809h172.885c4.143 0 7.5-3.357 7.5-7.5s-3.357-7.5-7.5-7.5h-172.885c-4.143 0-7.5 3.357-7.5 7.5s3.357 7.5 7.5 7.5z"/><path d="m403.245 73.784h-54.731v-6.224c0-12.698-10.331-23.029-23.029-23.029h-24.866c-.048-24.563-20.045-44.531-44.619-44.531-24.572 0-44.569 19.968-44.618 44.531h-24.866c-12.698 0-23.029 10.331-23.029 23.029v6.224h-54.731c-9.784 0-17.744 7.96-17.744 17.744v333.886c0 4.143 3.357 7.5 7.5 7.5s7.5-3.357 7.5-7.5v-209.567h16.093c9.477 0 17.186-7.709 17.186-17.186v-20.331c0-9.477-7.709-17.186-17.186-17.186h-16.093v-69.616c0-1.513 1.231-2.744 2.744-2.744h54.731v9.11c0 12.698 10.331 23.029 23.029 23.029h24.395c4.143 0 7.5-3.357 7.5-7.5s-3.357-7.5-7.5-7.5h-24.395c-4.428 0-8.029-3.602-8.029-8.029v-30.333c0-4.428 3.602-8.029 8.029-8.029h24.954c8.223 0 14.912-6.69 14.912-14.913 0-16.332 13.287-29.619 29.618-29.619s29.618 13.287 29.618 29.618c0 8.223 6.69 14.913 14.913 14.913h24.953c4.428 0 8.029 3.602 8.029 8.029v30.334c0 4.428-3.602 8.029-8.029 8.029h-84.587c-4.143 0-7.5 3.357-7.5 7.5s3.357 7.5 7.5 7.5h84.587c12.698 0 23.029-10.331 23.029-23.029v-9.11h54.731c1.514 0 2.745 1.231 2.745 2.744v69.616h-16.093c-9.477 0-17.186 7.709-17.186 17.186v20.331c0 9.477 7.709 17.186 17.186 17.186h16.093v278.408c0 1.515-1.231 2.746-2.745 2.746h-294.49c-1.513 0-2.744-1.231-2.744-2.746v-38.854c0-4.143-3.357-7.5-7.5-7.5s-7.5 3.357-7.5 7.5v38.854c0 9.785 7.96 17.746 17.744 17.746h294.49c9.785 0 17.745-7.961 17.745-17.746v-402.727c.001-9.784-7.959-17.744-17.744-17.744zm-281.141 102.361c1.205 0 2.186.98 2.186 2.186v20.331c0 1.205-.98 2.186-2.186 2.186h-16.093v-24.702h16.093zm267.793 24.702c-1.205 0-2.186-.98-2.186-2.186v-20.331c0-1.205.98-2.186 2.186-2.186h16.093v24.702h-16.093z"/></g></svg>