<svg id="Capa_1" enable-background="new 0 0 512 512" height="512" viewBox="0 0 512 512" width="512" xmlns="http://www.w3.org/2000/svg"><g><g fill="#edf4ff"><circle cx="256" cy="255.881" r="201.894"/><path d="m497.078 322.326c-.625 0-1.258-.07-1.891-.227-4.289-1.039-6.93-5.359-5.891-9.656 4.445-18.398 6.703-37.43 6.703-56.562 0-57.789-20.836-113.625-58.656-157.219-2.898-3.336-2.539-8.391.797-11.281 3.344-2.906 8.391-2.539 11.281.797 40.352 46.508 62.579 106.062 62.579 167.703 0 20.398-2.406 40.687-7.156 60.328-.883 3.656-4.156 6.117-7.766 6.117z"/><path d="m68.352 426.037c-2.242 0-4.469-.938-6.055-2.766-40.172-46.453-62.297-105.898-62.297-167.39 0-22.391 2.898-44.609 8.602-66.055 1.141-4.281 5.578-6.766 9.789-5.68 4.273 1.141 6.812 5.523 5.68 9.789-5.36 20.11-8.071 40.946-8.071 61.946 0 57.648 20.742 113.375 58.406 156.922 2.883 3.344 2.523 8.398-.82 11.289-1.516 1.305-3.375 1.945-5.234 1.945z"/></g><path d="m129.357 43.378-11.713-25.115c-2.391-5.128-9.366-6.36-13.106-2.115-24.514 27.826-24.514 71.305-24.514 71.305z" fill="#ffc269"/><path d="m217.538 114.484-25.134-13.236-46.432 48.909s43.808 1.772 72.846-22.313c4.441-3.684 3.825-10.672-1.28-13.36z" fill="#ffa95f"/><path d="m256.024 8.119c-89.34 0-167.604 47.26-211.245 118.131-14.922 24.233-6.12 56.071 18.263 70.051l56.501-35.967c42.064-77.069 139.014-116.334 233-116.334 15.461 0 31.333 4.417 44.725 8.312-40.087-27.835-88.744-44.193-141.244-44.193z" fill="#ffa95f"/><path d="m63.042 196.301c.873.501 1.732.961 2.645 1.416.312.155.625.311.938.466 24.526 12.193 54.463 3.333 67.585-20.708 42.064-77.069 123.827-129.355 217.813-129.355 15.461 0 30.566 1.486 45.244 4.193-.096-.066-.199-.123-.295-.189-30.459-13.268-64.062-20.67-99.406-20.67-107.991-.001-199.927 68.775-234.524 164.847z" fill="#ff8b5a"/><path d="m374.323 89.329c0 12.74 3.916 24.405 10.415 33.469 2.688 3.749 8.482 3.749 11.17 0 6.498-9.064 10.415-20.729 10.415-33.469 0-16.061-6.225-30.415-16-40-9.775 9.586-16 23.939-16 40z" fill="#ffa95f"/><path d="m426.324 65.329c11.595 0 22.201-4.005 30.396-10.634 3.357-2.715 3.357-8.015 0-10.731-8.195-6.63-18.801-10.634-30.396-10.634-14.455 0-27.373 6.225-36 16 8.626 9.775 21.544 15.999 36 15.999z" fill="#ffc269"/><path d="m69.508 125.075c1.398 0 2.812.367 4.102 1.133 3.789 2.266 5.023 7.18 2.758 10.977l-3.812 6.375c-2.273 3.781-7.18 5.008-10.977 2.758-3.789-2.266-5.023-7.18-2.758-10.977l3.812-6.375c1.5-2.501 4.156-3.891 6.875-3.891z" fill="#785353"/><path d="m109.844 152.911c1.398 0 2.812.367 4.102 1.133 3.789 2.266 5.023 7.18 2.758 10.977l-3.812 6.375c-2.266 3.789-7.188 5.016-10.977 2.758-3.789-2.266-5.023-7.18-2.758-10.977l3.812-6.375c1.5-2.501 4.156-3.891 6.875-3.891z" fill="#785353"/><path d="m382.544 468.622 11.713 25.115c2.391 5.128 9.366 6.36 13.106 2.115 24.514-27.825 24.514-71.304 24.514-71.304z" fill="#ffc269"/><path d="m294.362 397.516 25.134 13.236 46.432-48.909s-43.808-1.772-72.846 22.313c-4.44 3.684-3.824 10.672 1.28 13.36z" fill="#ffa95f"/><path d="m255.876 503.881c89.34 0 167.604-47.26 211.245-118.131 14.922-24.233 6.12-56.071-18.263-70.051l-56.501 35.967c-42.064 77.069-139.014 116.334-233 116.334-15.461 0-31.333-4.417-44.725-8.312 40.087 27.834 88.744 44.193 141.244 44.193z" fill="#ffa95f"/><path d="m448.859 315.699c-.873-.501-1.732-.961-2.646-1.416-.312-.155-.625-.311-.938-.466-24.526-12.193-54.463-3.333-67.585 20.708-42.064 77.069-123.827 129.355-217.813 129.355-15.461 0-30.566-1.486-45.244-4.193.096.066.199.123.295.189 30.459 13.268 64.062 20.67 99.406 20.67 107.991.001 199.927-68.775 234.525-164.847z" fill="#ff8b5a"/><path d="m137.577 422.671c0-12.74-3.916-24.405-10.415-33.469-2.688-3.749-8.482-3.749-11.17 0-6.498 9.064-10.415 20.729-10.415 33.469 0 16.061 6.225 30.415 16 40 9.776-9.586 16-23.939 16-40z" fill="#ffa95f"/><path d="m85.577 446.671c-11.595 0-22.201 4.005-30.396 10.634-3.357 2.715-3.357 8.015 0 10.731 8.195 6.63 18.801 10.634 30.396 10.634 14.455 0 27.373-6.225 36-16-8.627-9.775-21.545-15.999-36-15.999z" fill="#ffc269"/><path d="m442.392 386.925c-1.398 0-2.812-.367-4.102-1.133-3.789-2.266-5.023-7.18-2.758-10.977l3.812-6.375c2.273-3.781 7.18-5.008 10.977-2.758 3.789 2.266 5.023 7.18 2.758 10.977l-3.812 6.375c-1.5 2.501-4.156 3.891-6.875 3.891z" fill="#785353"/><path d="m402.056 359.089c-1.398 0-2.812-.367-4.102-1.133-3.789-2.266-5.023-7.18-2.758-10.977l3.812-6.375c2.266-3.789 7.188-5.016 10.977-2.758 3.789 2.266 5.023 7.18 2.758 10.977l-3.812 6.375c-1.5 2.501-4.156 3.891-6.875 3.891z" fill="#785353"/></g></svg>