<svg id="Capa_1" enable-background="new 0 0 512 512" height="512" viewBox="0 0 512 512" width="512" xmlns="http://www.w3.org/2000/svg"><g><path d="m166 227.512c-4.849-.985-9.862-1.512-15-1.512h-108.948l-21.823 16.151c-3.724 10.856-5.229 24.549-5.229 28.849 0 31.908 12.656 62.008 35.637 84.756 22.96 22.727 53.275 35.244 85.363 35.244h74.615l15.385-15.791v-74.209c0-36.284-25.767-66.537-60-73.488z" fill="#edf5ff"/><path d="m166 227.512v163.488h44.615l15.385-15.791v-74.209c0-36.284-25.767-66.537-60-73.488z" fill="#d5e8fe"/><path d="m226 16c-24.626 0-46.32 12.081-60 30.458-13.68-18.377-35.374-30.458-60-30.458-8.291 0-15 6.709-15 15s6.709 15 15 15c24.814 0 45 20.186 45 45v30c0 8.291 6.709 15 15 15s15-6.709 15-15v-30c0-24.814 20.186-45 45-45 8.291 0 15-6.709 15-15s-6.709-15-15-15z" fill="#56bfbf"/><path d="m181 121v-30c0-24.814 20.186-45 45-45 8.291 0 15-6.709 15-15s-6.709-15-15-15c-24.626 0-46.32 12.081-60 30.458v89.542c8.291 0 15-6.709 15-15z" fill="#4ba6a6"/><path d="m226 316h-60-30c-24.901 0-45-20.101-45-45v-30c0-8.401-6.599-15-15-15s-15 6.599-15 15v30c0 41.4 33.6 75 75 75h30 60c8.401 0 15-6.601 15-15 0-8.401-6.599-15-15-15z" fill="#d5e8fe"/><path d="m241 331c0 8.399-6.599 15-15 15h-60v-30h60c8.401 0 15 6.599 15 15z" fill="#b5dbff"/><path d="m497 16h-31c-21.592 0-42.451 6.621-60 18.823-17.549-12.202-38.408-18.823-60-18.823h-30c-8.291 0-15 6.709-15 15 0 40.693 23.613 77.505 59.736 94.775-2.373 22.574-21.533 40.225-44.736 40.225h-150-60c-52.755 0-97.127 39.25-104.484 90h119.484c16.965 0 32.435 5.843 45 15.339 18.115 13.691 30 35.204 30 59.661v75h90c90.967 0 165-74.019 165-165v-115.107c36.299-17.212 61-54.097 61-94.893 0-8.291-6.709-15-15-15z" fill="#406b80"/><path d="m196 331v75h90c90.967 0 165-74.019 165-165v-115.107c36.299-17.212 61-54.097 61-94.893 0-8.291-6.709-15-15-15h-31c-21.592 0-42.451 6.621-60 18.823-17.549-12.202-38.408-18.823-60-18.823h-30c-8.291 0-15 6.709-15 15 0 40.693 23.613 77.505 59.736 94.775-2.373 22.574-21.533 40.225-44.736 40.225h-150v105.339c18.115 13.691 30 35.204 30 59.661z" fill="#345566"/><circle cx="196" cy="241" fill="#27404d" r="15"/><path d="m136 376c-28.109 0-54.679-10.975-74.812-30.905-24.665-24.415-35.631-58.88-29.178-89.095h-30.494c-.716 4.942-1.516 9.864-1.516 15 0 74.443 61.557 135 136 135h30 30v-30z" fill="#d5e8fe"/><path d="m166 376h30v30h-30z" fill="#b5dbff"/><g><path d="m331 496c-90.967 0-165-74.019-165-165 0-8.291 6.709-15 15-15 90.967 0 165 74.019 165 165 0 8.291-6.709 15-15 15z" fill="#406b80"/></g></g></svg>