<svg id="Capa_1" enable-background="new 0 0 512 512" height="512" viewBox="0 0 512 512" width="512" xmlns="http://www.w3.org/2000/svg"><g><path d="m293.076 50h-74.152l-15 30.24v56.221c0 8.284 6.716 15 15 15h74.152c8.284 0 15-6.716 15-15v-56.221z" fill="#d5e8fe"/><path d="m256 50v101.46h37.076c8.284 0 15-6.716 15-15v-56.22l-15-30.24z" fill="#b5dbff"/><path d="m293.076 0h-74.152c-8.284 0-15 6.716-15 15v65.24h104.152v-65.24c0-8.284-6.716-15-15-15z" fill="#97e4fd"/><path d="m388.141 121.46h-264.282c-8.284 0-15 6.716-15 15v69.282c0 8.284 6.716 15 15 15h264.281c8.284 0 15-6.716 15-15v-69.282c.001-8.284-6.715-15-14.999-15z" fill="#97e4fd"/><path d="m388.141 121.46h-132.141v99.282h132.141c8.284 0 15-6.716 15-15v-69.282c0-8.284-6.716-15-15-15z" fill="#7dc1fc"/><path d="m293.076 0h-37.076v80.24h52.076v-65.24c0-8.284-6.716-15-15-15z" fill="#7dc1fc"/><path d="m433.01 190.743h-354.02c-8.284 0-15 6.716-15 15v163.638c0 8.284 6.716 15 15 15h354.02c8.284 0 15-6.716 15-15v-163.638c0-8.285-6.716-15-15-15z" fill="#d5e8fe"/><path d="m433.01 190.743h-177.01v193.638h177.01c8.284 0 15-6.716 15-15v-163.638c0-8.285-6.716-15-15-15z" fill="#b5dbff"/><g><path d="m249.139 253.41-232.833 119.771c-3.588 1.845-6.28 5.058-7.471 8.913-1.19 3.854-.778 8.026 1.145 11.573l59.885 110.48c2.623 4.838 7.685 7.852 13.188 7.852h172.947l20-110.801-20-149.451c-2.354.001-4.708.555-6.861 1.663z" fill="#47568c"/><path d="m503.165 382.094c-1.19-3.855-3.883-7.068-7.471-8.913l-232.833-119.771c-2.153-1.108-4.507-1.662-6.861-1.662v260.252h172.948c5.503 0 10.564-3.014 13.188-7.852l59.885-110.48c1.922-3.547 2.334-7.719 1.144-11.574z" fill="#29376d"/></g></g></svg>