<?xml version="1.0" encoding="iso-8859-1"?>
<!-- Generator: Adobe Illustrator 19.0.0, SVG Export Plug-In . SVG Version: 6.00 Build 0)  -->
<svg version="1.1" id="Layer_1" xmlns="http://www.w3.org/2000/svg" xmlns:xlink="http://www.w3.org/1999/xlink" x="0px" y="0px"
	 viewBox="0 0 512 512" style="enable-background:new 0 0 512 512;" xml:space="preserve">
<path style="fill:#81A4E3;" d="M414.255,218.764l-1.482,0.009c-1.155,0.005-2.291,0.018-3.418-0.014
	c-5.045-0.132-9.064-4.259-9.064-9.304c0-61.595-52.2-111.709-116.364-111.709c-50.968,0-95.55,31.309-110.941,77.905
	c-1.368,4.141-5.455,6.8-9.75,6.346c-3.168-0.309-6.386-0.468-9.636-0.468c-53.895,0-97.745,43.85-97.745,97.745
	c0.002,0.483,0.093,2.017,0.249,4.099c6.666-1.867,13.67-2.935,20.932-2.935c0.132,0,0.264,0,0.4,0
	c13.65-31.596,45.754-52.364,82.054-52.364c45.777,0,83.577,33.295,88.314,75.895c33.246,2.946,59.395,30.668,59.395,64.323
	c0,2.959-0.27,5.853-0.66,8.71l112.328-0.101c41.577-2.155,74.514-36.864,74.514-79.009
	C493.382,254.259,457.886,218.764,414.255,218.764z"/>
<path style="fill:#73C9C9;" d="M241.941,322.327c-0.827,0-1.65,0.023-2.468,0.064c-2.532,0.186-5.036-0.786-6.891-2.546
	c-1.85-1.759-2.895-4.2-2.895-6.75c0-36.65-31.491-66.404-70.196-66.404c-30.782,0-57.691,18.618-66.954,46.327
	c-1.377,4.114-5.405,6.741-9.727,6.314c-1.9-0.182-3.827-0.277-5.773-0.277c-32.214,0-58.418,25.841-58.418,57.6
	s26.205,57.6,58.418,57.6c0.864,0,1.723-0.018,2.577-0.055c0.5-0.005,0.991,0.005,1.473,0.055h162.623
	c0.223-0.027,0.45-0.05,0.682-0.059c24.782-1.264,44.191-21.427,44.191-45.905C288.582,342.945,267.659,322.327,241.941,322.327z"/>
<path style="fill:#314E55;" d="M418.577,200.241c-4.914-67.582-63.427-121.114-134.65-121.114
	c-56.505,0-106.291,33.409-126.15,83.854c-1.386-0.05-2.777-0.073-4.177-0.073c-64.164,0-116.364,52.2-116.364,116.364
	c0,1.95,0.407,7.166,0.844,11.74C15.337,304.277,0,328.698,0,356.655c0,42.75,36.114,77.418,79.223,76.186
	c0.25,0.023,0.505,0.032,0.759,0.032h164.904c0.577,0,1.145-0.054,1.7-0.159c24.293-1.691,44.684-16.461,54.432-37.09l118.336-0.119
	c51.95-2.673,92.645-45.55,92.645-97.613C512,245.441,470.477,202.509,418.577,200.241z M244.391,414.195
	c-0.232,0.009-0.459,0.032-0.682,0.059H81.086c-0.482-0.05-0.973-0.059-1.473-0.055c-0.854,0.036-1.713,0.055-2.577,0.055
	c-32.214,0-58.418-25.841-58.418-57.6s26.205-57.6,58.418-57.6c1.945,0,3.873,0.095,5.773,0.277c4.323,0.427,8.35-2.2,9.727-6.314
	c9.263-27.709,36.173-46.327,66.954-46.327c38.705,0,70.195,29.755,70.195,66.405c0,2.55,1.045,4.991,2.895,6.75
	c1.855,1.759,4.359,2.732,6.891,2.546c0.818-0.041,1.641-0.064,2.468-0.064c25.718,0,46.641,20.618,46.641,45.964
	C288.582,392.768,269.173,412.932,244.391,414.195z M418.868,376.9l-112.328,0.101c0.39-2.857,0.66-5.751,0.66-8.71
	c0-33.654-26.15-61.377-59.395-64.323c-4.736-42.6-42.536-75.895-88.314-75.895c-36.3,0-68.405,20.768-82.055,52.364
	c-0.136,0-0.268,0-0.4,0c-7.262,0-14.266,1.068-20.932,2.935c-0.157-2.082-0.247-3.616-0.249-4.099
	c0-53.895,43.85-97.745,97.745-97.745c3.25,0,6.468,0.159,9.636,0.468c4.295,0.455,8.382-2.205,9.75-6.346
	c15.391-46.595,59.973-77.905,110.941-77.905c64.164,0,116.364,50.114,116.364,111.709c0,5.046,4.018,9.173,9.064,9.304
	c1.127,0.032,2.264,0.018,3.418,0.014l1.482-0.009c43.632,0,79.127,35.496,79.127,79.127
	C493.382,340.036,460.446,374.745,418.868,376.9z"/>
<g>
</g>
<g>
</g>
<g>
</g>
<g>
</g>
<g>
</g>
<g>
</g>
<g>
</g>
<g>
</g>
<g>
</g>
<g>
</g>
<g>
</g>
<g>
</g>
<g>
</g>
<g>
</g>
<g>
</g>
</svg>
