<svg id="Layer_1" enable-background="new 0 0 512.658 512.658" height="512" viewBox="0 0 512.658 512.658" width="512" xmlns="http://www.w3.org/2000/svg"><g><g><path d="m294.403 167.683h.009z" fill="#0073aa"/><g><path d="m232.584 130.618v6.002c0 10.517 8.526 19.042 19.042 19.042 11.93 0 21.21-10.371 19.891-22.227l-.31-2.817z" fill="#ffb69e"/><g id="XMLID_85_"><path d="m278.831 512.658c-12.426 0-22.499-10.073-22.499-22.499v-179.835c0-12.426 10.073-22.499 22.499-22.499s20.487 10.073 20.487 22.499l2.012 45.699v134.136c0 12.426-10.073 22.499-22.499 22.499z" fill="#d13d2c"/></g><ellipse cx="251.475" cy="79.404" fill="#ffb69e" rx="38.858" ry="38.858" transform="matrix(.998 -.071 .071 .998 -4.996 18.027)"/><g id="XMLID_84_"><path d="m224.113 512.658c-12.426 0-22.499-10.073-22.499-22.499v-134.136l3.018-45.699c0-12.426 7.055-22.499 19.481-22.499s22.499 10.073 22.499 22.499v179.835c-.001 12.426-10.074 22.499-22.499 22.499z" fill="#e64937"/></g><g><path d="m296.607 133.384-22.617-2.766h-2.784c.002.043.01-.043.012 0 .467 10.432-9.212 19.475-19.316 19.475-10.829 0-18.847-9.009-19.316-19.475-.002-.043 0 .043-.002 0h-3.653l-20.458 2.766v176.941h88.135v-176.941z" fill="#fff"/></g><path d="m201.614 289.954h99.693l-.013-12.071h-99.68z" fill="#5a2d19"/><g fill="#00558c"><path d="m193.512 305.792v-4.438c-.009 2.224-.018 4.438 0 4.438z"/><path d="m193.512 296.854v4.501c.008-2.246.017-4.501 0-4.501z"/><path d="m201.614 130.618c-11.038.914-21.096 6.235-27.992 15.089l-37.618 48.3c-3.062 3.932-4.428 8.923-3.794 13.865l6.702 52.279 20.335 3.547 16.735-8.448-5.694-44.41 31.325-40.221v185.404h27.317v-225.405z"/></g><path d="m342.702 252.485 18.111 3.461 19.17-5.418-1.749-36.697c-.2-4.184-1.797-8.179-4.538-11.346l-51.482-59.483c-11.687-13.504-27.98-12.312-28.34-12.384h-8.483c0-.179-7.803 0-11.401 0v225.406h27.317v-180.041l39.885 46.084z" fill="#0073aa"/><path d="m175.982 255.251-37.069 4.901 1.714 13.366c1.209 9.435 9.253 16.322 18.521 16.321.792 0 1.594-.05 2.401-.154 10.242-1.313 17.48-10.68 16.167-20.921z" fill="#fff"/><path d="m140.626 273.517c1.209 9.435 9.253 16.322 18.521 16.321.792 0 1.594-.05 2.401-.154 10.242-1.313 17.48-10.68 16.167-20.921z" fill="#ffb69e"/><path d="m361.914 269.364 18.664-6.362-.594-12.474-37.282 1.957.526 12.296z" fill="#fff"/><path d="m343.228 264.781c.477 10.011 8.744 17.807 18.66 17.807.3 0 .602-.007.905-.022 10.314-.491 18.276-9.251 17.785-19.564z" fill="#ffb69e"/></g><g><g><path d="m251.759 395.36c-3.887 0-7.038-3.151-7.038-7.038v-220.289c0-3.887 3.151-7.038 7.038-7.038s7.038 3.151 7.038 7.038v220.289c-.001 3.887-3.151 7.038-7.038 7.038z" fill="#a56941"/></g><g><path d="m329.643 363.099c-1.801 0-3.602-.687-4.977-2.061l-155.767-155.768c-2.749-2.748-2.749-7.205 0-9.953 2.748-2.748 7.205-2.748 9.953 0l155.768 155.768c2.748 2.748 2.748 7.205 0 9.953-1.375 1.374-3.176 2.061-4.977 2.061z" fill="#a56941"/></g><g><path d="m361.903 285.215h-220.288c-3.887 0-7.038-3.151-7.038-7.038s3.151-7.038 7.038-7.038h220.288c3.887 0 7.038 3.151 7.038 7.038s-3.151 7.038-7.038 7.038z" fill="#a56941"/></g><g><path d="m173.875 363.099c-1.801 0-3.602-.687-4.977-2.061-2.749-2.748-2.749-7.205 0-9.953l155.767-155.767c2.75-2.748 7.204-2.748 9.954 0 2.748 2.748 2.748 7.205 0 9.953l-155.767 155.767c-1.374 1.374-3.176 2.061-4.977 2.061z" fill="#a56941"/></g></g><g><path d="m251.759 211.142c-36.963 0-67.035 30.072-67.035 67.035s30.072 67.035 67.035 67.035c36.964 0 67.035-30.072 67.035-67.035s-30.071-67.035-67.035-67.035zm0 159.889c-51.2 0-92.853-41.654-92.853-92.854s41.654-92.853 92.853-92.853 92.854 41.654 92.854 92.853c0 51.2-41.655 92.854-92.854 92.854z" fill="#965028"/></g><circle cx="251.759" cy="278.178" fill="#965028" r="28.952"/></g><g><g><g><g><path d="m298.486 33.086c-5.704 1.166-11.43-2.201-12.945-7.822-3.923-14.553-17.208-25.264-33.001-25.264-15.793 0-29.078 10.711-33.001 25.264-1.515 5.621-7.241 8.988-12.945 7.822-4.627-.946-9.081-2.452-13.302-1.988-1.696.186-3.196 1.184-4.022 2.677s-.877 3.293-.136 4.83c3.778 7.831 7.556 22.367 11.334 25.752 8.308 7.444 20.159 9.473 30.45 5.169 13.668-5.717 29.577-5.717 43.245 0 10.291 4.305 22.142 2.275 30.45-5.169 3.778-3.385 7.556-17.921 11.334-25.752.741-1.536.69-3.337-.136-4.829s-2.326-2.491-4.022-2.677c-4.222-.464-8.676 1.042-13.303 1.987z" fill="#00558c"/></g><path d="m267.849 28.391-3.772-3.772c-1.198-1.198-3.141-1.198-4.34 0l-7.21 7.209-7.21-7.209c-1.198-1.198-3.141-1.198-4.34 0l-3.772 3.772c-1.198 1.198-1.198 3.142 0 4.34l7.21 7.209-7.21 7.21c-1.198 1.198-1.198 3.141 0 4.34l3.772 3.772c1.198 1.198 3.141 1.198 4.34 0l7.21-7.21 7.21 7.21c1.198 1.198 3.141 1.198 4.34 0l3.772-3.772c1.198-1.198 1.198-3.141 0-4.34l-7.21-7.21 7.21-7.209c1.198-1.199 1.198-3.142 0-4.34z" fill="#fff"/></g></g></g></g></svg>